<svg width="29" height="29" viewBox="0 0 29 29" fill="none" xmlns="http://www.w3.org/2000/svg">
<path d="M23.9837 0H4.17525C1.91233 0 0.0712891 1.84104 0.0712891 4.10396V23.9124C0.0712891 26.1753 1.91233 28.0164 4.17525 28.0164H23.9837C26.2466 28.0164 28.0877 26.1753 28.0877 23.9124V4.10396C28.0877 1.84104 26.2466 0 23.9837 0ZM16.5418 17.2366V26.3748H14.9003V17.2366C14.9003 16.7833 14.5328 16.4158 14.0795 16.4158H11.6171V14.7743H14.0795C14.5328 14.7743 14.9003 14.4068 14.9003 13.9535V10.6703C14.9003 8.40737 16.7413 6.56634 19.0042 6.56634H21.4666V8.20792H19.0042C17.6465 8.20792 16.5418 9.31254 16.5418 10.6703V13.9535C16.5418 14.4068 16.9093 14.7743 17.3626 14.7743H21.2361L20.8257 16.4158H17.3626C16.9093 16.4158 16.5418 16.7833 16.5418 17.2366ZM26.4461 23.9124C26.4461 25.2702 25.3414 26.3748 23.9837 26.3748H18.1834V18.0574H21.4666C21.8432 18.0574 22.1716 17.8011 22.2629 17.4357L23.0837 14.1525C23.2132 13.6344 22.8204 13.1327 22.2874 13.1327H18.1834V10.6703C18.1834 10.2177 18.5516 9.8495 19.0042 9.8495H22.2874C22.7407 9.8495 23.1082 9.48201 23.1082 9.02871V5.74554C23.1082 5.29225 22.7407 4.92475 22.2874 4.92475H19.0042C15.8361 4.92475 13.2587 7.5022 13.2587 10.6703V13.1327H10.7963C10.343 13.1327 9.97551 13.5002 9.97551 13.9535V17.2366C9.97551 17.6899 10.343 18.052 10.7963 18.052H13.2587V26.3748H4.17525C2.81749 26.3748 1.71287 25.2702 1.71287 23.9124V4.10396C1.71287 2.74621 2.81749 1.64158 4.17525 1.64158H23.9837C25.3414 1.64158 26.4461 2.74621 26.4461 4.10396V23.9124Z" fill="white"/>
</svg>
