<svg width="29" height="29" viewBox="0 0 29 29" fill="none" xmlns="http://www.w3.org/2000/svg">
<path d="M20.9717 0H8.12284C3.94107 0 0.539062 3.40201 0.539062 7.58378V20.4328C0.539062 24.6144 3.94107 28.0164 8.12284 28.0164H20.9719C25.1534 28.0164 28.5554 24.6144 28.5554 20.4328V7.58378C28.5554 3.40201 25.1534 0 20.9717 0V0ZM26.913 20.4328C26.913 23.7087 24.2478 26.3739 20.9717 26.3739H8.12284C4.84672 26.3739 2.1815 23.7087 2.1815 20.4328V7.58378C2.1815 4.30766 4.84672 1.64244 8.12284 1.64244H20.9719C24.2478 1.64244 26.913 4.30766 26.913 7.58378V20.4328Z" fill="white"/>
<path d="M14.5473 6.56641C10.4438 6.56641 7.10547 9.90474 7.10547 14.0083C7.10547 18.1118 10.4438 21.4501 14.5473 21.4501C18.6508 21.4501 21.9892 18.1118 21.9892 14.0083C21.9892 9.90474 18.6508 6.56641 14.5473 6.56641ZM14.5473 19.8545C11.3238 19.8545 8.70103 17.232 8.70103 14.0083C8.70103 10.7847 11.3238 8.16196 14.5473 8.16196C17.771 8.16196 20.3936 10.7847 20.3936 14.0083C20.3936 17.232 17.771 19.8545 14.5473 19.8545Z" fill="white"/>
<path d="M22.427 3.50195C21.22 3.50195 20.2383 4.58205 20.2383 5.9095C20.2383 7.23717 21.22 8.31727 22.427 8.31727C23.6339 8.31727 24.6158 7.23717 24.6158 5.9095C24.6158 4.58182 23.6339 3.50195 22.427 3.50195ZM22.427 6.57015C22.0959 6.57015 21.8264 6.2737 21.8264 5.9095C21.8264 5.54507 22.0959 5.24884 22.427 5.24884C22.7583 5.24884 23.0278 5.54507 23.0278 5.9095C23.0278 6.2737 22.7583 6.57015 22.427 6.57015Z" fill="white"/>
</svg>
