<svg width="37" height="29" viewBox="0 0 37 29" fill="none" xmlns="http://www.w3.org/2000/svg">
<path d="M33.0978 0.644531H3.40859C1.66508 0.644531 0.242676 2.06539 0.242676 3.81044V24.9165C0.242676 26.6557 1.65875 28.0824 3.40859 28.0824H33.0978C34.8369 28.0824 36.2637 26.6664 36.2637 24.9165V3.81044C36.2637 2.0713 34.8476 0.644531 33.0978 0.644531ZM32.6606 2.75514L18.3203 17.0955L3.85597 2.75514H32.6606ZM2.35328 24.4795V4.23742L12.5179 14.3149L2.35328 24.4795ZM3.84569 25.9718L14.0167 15.8008L17.5806 19.3341C17.9932 19.7431 18.6589 19.7418 19.0698 19.3309L22.5448 15.8559L32.6607 25.9718H3.84569ZM34.1531 24.4794L24.0372 14.3635L34.1531 4.24748V24.4794Z" fill="white"/>
</svg>
